<svg xmlns="http://www.w3.org/2000/svg" version="1.0" preserveAspectRatio="xMidYMid meet" viewBox="111.11 140 153.87 113.85">

<g transform="translate(0.000000,376.000000) scale(0.100000,-0.100000)" fill="#000000" stroke="none">
<path d="M1416 2293 c-18 -38 -46 -103 -62 -146 -22 -59 -36 -82 -55 -93 -38 -19 -113 -106 -136 -156 -40 -86 -56 -170 -51 -271 3 -86 7 -99 38 -152 19 -31 52 -72 74 -91 56 -48 188 -110 286 -134 166 -41 562 -37 780 7 148 29 284 132 330 248 28 72 39 240 21 326 -21 98 -92 219 -130 219 -21 0 -11 -25 22 -54 l32 -29 -30 -13 c-43 -18 -75 -56 -82 -96 -4 -31 0 -41 30 -74 33 -37 39 -39 93 -38 l57 0 -6 -74 c-9 -113 -42 -197 -102 -257 -64 -65 -144 -110 -226 -129 -187 -43 -642 -47 -790 -8 -90 24 -223 89 -273 132 -19 17 -49 59 -66 92 -26 53 -30 72 -30 142 0 97 21 192 56 257 l26 47 39 -20 c32 -16 54 -19 122 -16 109 4 169 33 215 103 l34 50 91 7 c51 4 144 3 207 -2 63 -5 157 -10 208 -10 86 0 92 1 92 20 0 12 9 39 21 61 23 47 100 153 112 157 10 3 50 -78 88 -175 13 -35 30 -63 36 -63 17 0 17 -3 -11 71 -44 116 -95 219 -108 219 -8 0 -19 -8 -25 -17 -7 -10 -28 -40 -48 -68 -19 -27 -49 -78 -67 -112 -18 -34 -37 -64 -43 -67 -7 -2 -79 0 -161 5 -82 5 -215 8 -296 7 -81 -1 -150 0 -153 3 -3 3 -21 52 -41 109 -36 105 -59 150 -75 150 -5 0 -24 -30 -43 -67z"/>
<path d="M2060 1860 c-6 -12 -10 -37 -8 -57 4 -42 31 -58 69 -39 27 13 37 62 19 96 -15 27 -65 27 -80 0z"/>
<path d="M1627 1859 c-26 -15 -39 -56 -27 -80 12 -22 68 -27 88 -7 17 17 15 64 -4 82 -18 18 -32 20 -57 5z"/>
<path d="M2323 1664 c-42 -24 -49 -34 -37 -47 9 -8 94 46 94 60 0 18 -9 16 -57 -13z"/>
<path d="M1340 1640 c0 -10 52 -40 70 -40 20 0 9 20 -20 35 -34 17 -50 19 -50 5z"/>
<path d="M1330 1576 c0 -17 49 -31 63 -17 7 7 1 14 -17 21 -36 13 -46 13 -46 -4z"/>
<path d="M2300 1570 c0 -11 65 -24 79 -15 24 14 9 25 -34 25 -25 0 -45 -4 -45 -10z"/>
<path d="M2035 1519 c-4 -17 -14 -33 -22 -36 -21 -8 -83 23 -83 42 0 26 -24 17 -53 -20 -24 -30 -34 -35 -68 -35 -47 0 -79 14 -79 35 0 8 -4 15 -10 15 -5 0 -10 -11 -10 -26 0 -19 8 -28 35 -40 53 -22 99 -18 134 12 25 20 34 24 45 15 21 -18 78 -32 99 -25 17 5 47 59 47 84 0 24 -29 7 -35 -21z"/>
<path d="M1361 1496 c-51 -18 -54 -41 -5 -32 44 9 63 22 49 35 -6 5 -24 4 -44 -3z"/>
<path d="M2280 1480 c0 -6 20 -20 45 -32 33 -16 48 -19 56 -11 8 8 1 17 -29 32 -45 23 -72 27 -72 11z"/>
</g>
</svg>